# xmcd CD database file
#
# Track frame offsets:
#	150
#	31498
#	71545
#	116575
#	149997
#	194213
#	235349
#	270856
#
# Disc length: 4085 seconds
#
# Revision: 3
# Processed by: cddbd v1.5.2PL0 Copyright (c) Steve Scherf et al.
# Submitted via: CDex 1.51
#
DISCID=7d0ff308
DTITLE=The World String Trio - Live in Kiev
DYEAR=2000
DGENRE=Jazz
TTITLE0=I'ts all right
TTITLE1=Funny Blues
TTITLE2=Second chance
TTITLE3=Summertime
TTITLE4=Tango mood
TTITLE5=Szklana dziewczyna
TTITLE6=Green rumba
TTITLE7=Lady be good
EXTD=maciesj strzelczyk - violin   krzysztof wolinski - guitar   piotr rodowicz - bass YEAR: 2000
EXTT0=
EXTT1=
EXTT2=
EXTT3=
EXTT4=
EXTT5=
EXTT6=
EXTT7=
PLAYORDER=
